<?xml version="1.0" standalone="no"?>
<!DOCTYPE svg PUBLIC "-//W3C//DTD SVG 20010904//EN"
 "http://www.w3.org/TR/2001/REC-SVG-20010904/DTD/svg10.dtd">
<svg version="1.0" xmlns="http://www.w3.org/2000/svg"
 width="280.000000pt" height="280.000000pt" viewBox="0 0 280.000000 280.000000"
 preserveAspectRatio="xMidYMid meet">
<metadata>
Created by potrace 1.14, written by Peter Selinger 2001-2017
</metadata>
<g transform="translate(0.000000,280.000000) scale(0.100000,-0.100000)"
fill="#000000" stroke="none">
<path d="M0 2680 l0 -119 88 -4 87 -3 -87 -2 -88 -2 0 -175 0 -176 158 3 157
3 2 229 c2 126 6 232 9 235 4 3 4 -199 1 -449 l-6 -455 23 75 c40 129 71 187
159 292 79 95 209 173 346 210 104 28 345 31 441 5 251 -66 420 -240 492 -505
l23 -82 135 2 135 3 3 229 c1 126 -1 233 -5 237 -5 5 -47 9 -96 10 -80 1 -102
8 -77 24 5 3 13 20 18 38 l8 32 293 5 c255 4 294 3 298 -10 2 -8 11 -30 19
-47 l14 -33 -110 0 -109 0 -3 -212 c-2 -117 -3 -422 -3 -678 l0 -465 72 -3
c70 -3 72 -4 94 -38 12 -19 33 -42 46 -51 24 -16 24 -17 7 -24 -29 -12 -674
-9 -674 2 0 6 11 27 25 47 14 20 25 42 25 49 0 8 25 13 78 15 l77 3 3 422 2
422 -134 3 -134 3 5 -125 c7 -171 -17 -285 -88 -430 -44 -89 -64 -117 -133
-185 -44 -44 -100 -89 -123 -100 -24 -11 -43 -23 -43 -27 0 -11 98 -28 165
-28 84 0 121 28 131 99 7 58 17 76 34 66 19 -12 6 -174 -20 -258 -25 -80 -73
-140 -127 -158 -60 -19 -151 -5 -340 54 -98 31 -236 72 -307 91 -229 64 -368
148 -483 291 -54 68 -123 191 -123 220 0 9 -7 18 -15 21 -8 4 -13 10 -10 14 3
5 -4 48 -16 97 -21 89 -21 90 -7 328 1 11 1 120 0 243 l-2 222 -155 0 -155 0
0 -210 0 -209 138 -4 137 -3 -137 -2 -138 -2 0 -225 0 -225 150 0 150 0 2 43
c0 23 4 4 8 -43 9 -116 12 -686 4 -677 -8 8 -10 33 -12 135 l-2 72 -150 0
-150 0 0 -195 0 -195 163 -3 162 -3 -162 -2 -163 -2 0 -215 0 -215 695 0 695
0 3 203 2 202 3 -202 2 -203 700 0 700 0 0 1400 0 1400 -490 0 -490 0 -1 -167
c-1 -93 -5 -217 -9 -278 -5 -70 -6 -10 -3 168 l4 277 -210 0 -210 0 -4 -122
-3 -123 -2 123 -2 122 -690 0 -690 0 0 -120z m2347 -37 c-2 -16 -4 -5 -4 22 0
28 2 40 4 28 2 -13 2 -35 0 -50z m-2064 -90 c-13 -2 -35 -2 -50 0 -16 2 -5 4
22 4 28 0 40 -2 28 -4z m285 -2124 c-12 -6 -56 -7 -130 -1 l-113 9 130 1 c92
1 125 -2 113 -9z"/>
<path d="M965 2246 c-164 -40 -289 -181 -347 -393 -17 -64 -21 -106 -22 -233
0 -90 5 -180 13 -215 49 -232 142 -375 290 -448 64 -31 70 -32 191 -32 122 0
127 1 193 33 121 60 215 184 260 347 28 99 36 417 13 525 -32 153 -130 306
-234 367 -100 59 -239 78 -357 49z m327 -503 c-40 -2 -103 -2 -140 0 -37 2 -4
3 73 3 77 0 107 -2 67 -3z m125 1 c-3 -3 -12 -4 -19 -1 -8 3 -5 6 6 6 11 1 17
-2 13 -5z m-360 -481 c-1 -81 -3 -17 -3 142 0 160 2 226 3 148 2 -78 2 -208 0
-290z m-219 20 c-21 -2 -57 -2 -80 0 -24 2 -7 4 37 4 44 0 63 -2 43 -4z"/>
<path d="M0 1065 l0 -215 150 0 150 0 0 215 0 215 -150 0 -150 0 0 -215z"/>
</g>
</svg>
